<?xml version="1.0" encoding="utf-8"?>
<!-- Generator: Adobe Illustrator 21.0.2, SVG Export Plug-In . SVG Version: 6.00 Build 0)  -->
<svg version="1.1" id="Page_4" xmlns="http://www.w3.org/2000/svg" xmlns:xlink="http://www.w3.org/1999/xlink" x="0px" y="0px"
	 viewBox="0 0 200 132" style="enable-background:new 0 0 200 132;" xml:space="preserve">
<style type="text/css">
	.st0{opacity:0.2;fill:#FFFFFF;}
	.st1{fill:#FFFFFF;}
</style>
<polyline class="st0" points="141.3,110.5 200,110.5 182.6,132 "/>
<path class="st1" d="M87.3,82.5L55.6,66l31.7-16.5V82.5z M141.3,21.5v89.1l41.3,21.5V66V0L141.3,21.5z M92.4,94.9V37.1h43.7v15.2
	h-26.3V58h25.7v15.2h-25.7v6.3h26.3v15.2H92.4z M66.8,76.6c-2.1,2.3-5.1,3.9-8.4,3.9c-8.4,0-14-6.4-14-14.5c0-8.1,5.6-14.5,14-14.5
	c3.3,0,6.3,1.6,8.4,3.9l14.8-7.7c-4.2-6.2-11.4-11.6-23.3-11.6c-18,0-31.7,12-31.7,29.9c0,17.8,13.6,29.9,31.7,29.9
	c11.7,0,19-5.5,23.2-11.6L66.8,76.6z M0,94.9h17.4V37.1H0V94.9z M0,123c0,2.5,1.8,4.1,4.2,4.1c1.2,0,2.4-0.4,3.2-1.1l-0.9-1.4
	c-0.5,0.5-1.4,0.8-2.1,0.8c-1.3,0-2.1-0.8-2.3-1.8H8v-0.5c0-2.6-1.6-4.3-3.9-4.3C1.7,118.9,0,120.7,0,123 M4,120.6
	c1.4,0,1.9,0.9,1.9,1.7H2.1C2.2,121.5,2.8,120.6,4,120.6 M16.5,126.9v-5.5c0-1.5-0.8-2.5-2.6-2.5c-1.3,0-2.2,0.6-2.7,1.2v-1H9.1v7.8
	h2.1v-5.3c0.4-0.5,1-0.9,1.8-0.9c0.9,0,1.4,0.4,1.4,1.5v4.7H16.5z M18,128.9c1,0.9,2,1.2,3.4,1.2c1.9,0,4.2-0.7,4.2-3.7v-7.3h-2.1v1
	c-0.6-0.8-1.5-1.2-2.4-1.2c-2,0-3.4,1.4-3.4,4c0,2.6,1.5,4,3.4,4c1,0,1.8-0.4,2.4-1.2v0.8c0,1.6-1.2,2-2.2,2c-1,0-1.8-0.3-2.4-1
	L18,128.9 M23.6,124.1c-0.4,0.5-1.1,0.9-1.8,0.9c-1.2,0-2-0.8-2-2.2c0-1.3,0.8-2.2,2-2.2c0.7,0,1.4,0.4,1.8,0.9V124.1 M27.1,117
	c0,0.7,0.6,1.2,1.2,1.2c0.7,0,1.2-0.6,1.2-1.2c0-0.7-0.6-1.2-1.2-1.2C27.7,115.8,27.1,116.3,27.1,117 M27.3,126.9h2.1v-7.8h-2.1
	V126.9z M38.5,126.9v-5.5c0-1.5-0.8-2.5-2.6-2.5c-1.3,0-2.2,0.6-2.7,1.2v-1h-2.1v7.8h2.1v-5.3c0.4-0.5,1-0.9,1.8-0.9
	c0.9,0,1.4,0.4,1.4,1.5v4.7H38.5z M39.7,123c0,2.5,1.8,4.1,4.2,4.1c1.2,0,2.4-0.4,3.2-1.1l-0.9-1.4c-0.5,0.5-1.4,0.8-2.1,0.8
	c-1.3,0-2.1-0.8-2.3-1.8h5.8v-0.5c0-2.6-1.6-4.3-3.9-4.3C41.3,118.9,39.7,120.7,39.7,123 M43.7,120.6c1.4,0,1.9,0.9,1.9,1.7h-3.9
	C41.9,121.5,42.4,120.6,43.7,120.6 M48.3,123c0,2.5,1.8,4.1,4.2,4.1c1.2,0,2.4-0.4,3.2-1.1l-0.9-1.4c-0.5,0.5-1.4,0.8-2.1,0.8
	c-1.3,0-2.1-0.8-2.3-1.8h5.8v-0.5c0-2.6-1.6-4.3-3.9-4.3C50,118.9,48.3,120.7,48.3,123 M52.3,120.6c1.4,0,1.9,0.9,1.9,1.7h-3.9
	C50.5,121.5,51.1,120.6,52.3,120.6 M59.5,126.9v-5.2c0.3-0.5,1.2-0.9,1.9-0.9c0.2,0,0.4,0,0.6,0v-2c-1,0-1.9,0.6-2.5,1.3v-1.1h-2.1
	v7.8H59.5z M62.7,117c0,0.7,0.6,1.2,1.2,1.2c0.7,0,1.2-0.6,1.2-1.2c0-0.7-0.6-1.2-1.2-1.2C63.3,115.8,62.7,116.3,62.7,117
	 M62.9,126.9H65v-7.8h-2.1V126.9z M74,126.9v-5.5c0-1.5-0.8-2.5-2.6-2.5c-1.3,0-2.2,0.6-2.7,1.2v-1h-2.1v7.8h2.1v-5.3
	c0.4-0.5,1-0.9,1.8-0.9c0.9,0,1.4,0.4,1.4,1.5v4.7H74z M75.6,128.9c1,0.9,2,1.2,3.4,1.2c1.9,0,4.2-0.7,4.2-3.7v-7.3h-2.1v1
	c-0.6-0.8-1.5-1.2-2.4-1.2c-2,0-3.4,1.4-3.4,4c0,2.6,1.5,4,3.4,4c1,0,1.8-0.4,2.4-1.2v0.8c0,1.6-1.2,2-2.2,2c-1,0-1.8-0.3-2.4-1
	L75.6,128.9 M81.1,124.1c-0.4,0.5-1.1,0.9-1.8,0.9c-1.2,0-2-0.8-2-2.2c0-1.3,0.8-2.2,2-2.2c0.7,0,1.4,0.4,1.8,0.9V124.1 M88.6,128.9
	c1,0.9,2,1.2,3.4,1.2c1.9,0,4.2-0.7,4.2-3.7v-7.3h-2.1v1c-0.6-0.8-1.5-1.2-2.4-1.2c-2,0-3.4,1.4-3.4,4c0,2.6,1.5,4,3.4,4
	c1,0,1.8-0.4,2.4-1.2v0.8c0,1.6-1.2,2-2.2,2c-1,0-1.8-0.3-2.4-1L88.6,128.9 M94.1,124.1c-0.4,0.5-1.1,0.9-1.8,0.9
	c-1.2,0-2-0.8-2-2.2c0-1.3,0.8-2.2,2-2.2c0.7,0,1.4,0.4,1.8,0.9V124.1 M99.9,126.9v-5.2c0.3-0.5,1.2-0.9,1.9-0.9c0.2,0,0.4,0,0.6,0
	v-2c-1,0-1.9,0.6-2.5,1.3v-1.1h-2.1v7.8H99.9z M102.9,123c0,2.2,1.6,4.1,4.1,4.1c2.6,0,4.1-1.9,4.1-4.1c0-2.2-1.6-4.1-4.1-4.1
	C104.4,118.9,102.9,120.8,102.9,123 M109,123c0,1.2-0.7,2.3-2,2.3c-1.3,0-2-1.1-2-2.3c0-1.2,0.7-2.3,2-2.3
	C108.3,120.7,109,121.8,109,123 M119.7,126.9v-7.8h-2.1v5.3c-0.4,0.5-1,0.9-1.8,0.9c-0.9,0-1.4-0.4-1.4-1.4v-4.8h-2.1v5.6
	c0,1.5,0.8,2.5,2.5,2.5c1.3,0,2.2-0.6,2.8-1.2v1H119.7z M123.5,125.9c0.6,0.8,1.5,1.2,2.4,1.2c2,0,3.5-1.5,3.5-4.1
	c0-2.6-1.5-4.1-3.5-4.1c-1,0-1.8,0.4-2.4,1.2v-1h-2.1v10.8h2.1V125.9 M127.2,123c0,1.4-0.8,2.3-2,2.3c-0.7,0-1.4-0.4-1.8-0.9v-2.8
	c0.4-0.5,1.1-0.9,1.8-0.9C126.4,120.7,127.2,121.6,127.2,123 M193.4,11.3l-1.2-2.1c0.6-0.1,1.2-0.7,1.2-1.6c0-1-0.7-1.7-1.8-1.7H189
	v5.4h1.1V9.4h0.8l1.1,1.9H193.4z M192.1,7.7c0,0.5-0.3,0.7-0.8,0.7h-1.2V7h1.2C191.8,7,192.1,7.2,192.1,7.7 M191.2,13.6
	c2.7,0,5-2.2,5-5c0-2.7-2.2-5-5-5c-2.7,0-5,2.2-5,5C186.2,11.4,188.4,13.6,191.2,13.6 M191.2,4.3c2.4,0,4.3,1.9,4.3,4.3
	c0,2.4-1.9,4.3-4.3,4.3c-2.4,0-4.3-1.9-4.3-4.3C186.9,6.3,188.8,4.3,191.2,4.3"/>
</svg>
