<svg xmlns="http://www.w3.org/2000/svg" viewBox="0 0 200 200">
  <rect width="200" height="200" rx="42" fill="#041E42"/>
  <g transform="translate(24,45) scale(0.83)" fill="#FFFFFF">
    <path d="M87.3,82.5L55.6,66l31.7-16.5V82.5z M141.3,21.5v89.1l41.3,21.5V66V0L141.3,21.5z M92.4,94.9V37.1h43.7v15.2h-26.3V58h25.7v15.2h-25.7v6.3h26.3v15.2H92.4z M66.8,76.6c-2.1,2.3-5.1,3.9-8.4,3.9c-8.4,0-14-6.4-14-14.5c0-8.1,5.6-14.5,14-14.5c3.3,0,6.3,1.6,8.4,3.9l14.8-7.7c-4.2-6.2-11.4-11.6-23.3-11.6c-18,0-31.7,12-31.7,29.9c0,17.8,13.6,29.9,31.7,29.9c11.7,0,19-5.5,23.2-11.6L66.8,76.6z M0,94.9h17.4V37.1H0V94.9z"/>
  </g>
</svg>
